<?xml version="1.0" standalone="no"?>
<!DOCTYPE svg PUBLIC "-//W3C//DTD SVG 20010904//EN"
 "http://www.w3.org/TR/2001/REC-SVG-20010904/DTD/svg10.dtd">
<svg version="1.0" xmlns="http://www.w3.org/2000/svg"
 width="1024.000000pt" height="1024.000000pt" viewBox="0 0 1024.000000 1024.000000"
 preserveAspectRatio="xMidYMid meet">
<metadata>
Created by potrace 1.14, written by Peter Selinger 2001-2017
</metadata>
<g transform="translate(0.000000,1024.000000) scale(0.100000,-0.100000)"
fill="#000000" stroke="none">
<path d="M3040 9600 l0 -160 -480 0 -480 0 0 -160 0 -160 -320 0 -320 0 0
-160 0 -160 -160 0 -160 0 0 -160 0 -160 -160 0 -160 0 0 -160 0 -160 -160 0
-160 0 0 -320 0 -320 -160 0 -160 0 0 -1280 0 -1280 160 0 160 0 0 -320 0
-320 160 0 160 0 0 -160 0 -160 -160 0 -160 0 0 -800 0 -800 160 0 160 0 0
-320 0 -320 160 0 160 0 0 -160 0 -160 160 0 160 0 0 -160 0 -160 320 0 320 0
0 -160 0 -160 480 0 480 0 0 -160 0 -160 2080 0 2080 0 0 160 0 160 480 0 480
0 0 160 0 160 320 0 320 0 0 160 0 160 160 0 160 0 0 160 0 160 160 0 160 0 0
320 0 320 160 0 160 0 0 800 0 800 -160 0 -160 0 0 160 0 160 160 0 160 0 0
320 0 320 160 0 160 0 0 1280 0 1280 -160 0 -160 0 0 320 0 320 -160 0 -160 0
0 160 0 160 -160 0 -160 0 0 160 0 160 -160 0 -160 0 0 160 0 160 -320 0 -320
0 0 160 0 160 -640 0 -640 0 0 160 0 160 -1920 0 -1920 0 0 -160z m3680 -160
l0 -160 640 0 640 0 0 -160 0 -160 320 0 320 0 0 -160 0 -160 160 0 160 0 0
-160 0 -160 160 0 160 0 0 -160 0 -160 160 0 160 0 0 -320 0 -320 160 0 160 0
0 -1120 0 -1120 -160 0 -160 0 0 -320 0 -320 -160 0 -160 0 0 -320 0 -320 160
0 160 0 0 -640 0 -640 -160 0 -160 0 0 -320 0 -320 -160 0 -160 0 0 -160 0
-160 -160 0 -160 0 0 -160 0 -160 -320 0 -320 0 0 -160 0 -160 -480 0 -480 0
0 -160 0 -160 -1920 0 -1920 0 0 160 0 160 -480 0 -480 0 0 160 0 160 -320 0
-320 0 0 160 0 160 -160 0 -160 0 0 160 0 160 -160 0 -160 0 0 320 0 320 -160
0 -160 0 0 640 0 640 160 0 160 0 0 320 0 320 -160 0 -160 0 0 320 0 320 -160
0 -160 0 0 1120 0 1120 160 0 160 0 0 320 0 320 160 0 160 0 0 160 0 160 160
0 160 0 0 160 0 160 160 0 160 0 0 160 0 160 320 0 320 0 0 160 0 160 480 0
480 0 0 160 0 160 1760 0 1760 0 0 -160z"/>
<path d="M1600 6560 l0 -160 -160 0 -160 0 0 -160 0 -160 -160 0 -160 0 0
-480 0 -480 160 0 160 0 0 -160 0 -160 320 0 320 0 0 -160 0 -160 640 0 640 0
0 -160 0 -160 -320 0 -320 0 0 -160 0 -160 320 0 320 0 0 160 0 160 160 0 160
0 0 160 0 160 160 0 160 0 0 320 0 320 160 0 160 0 0 640 0 640 -160 0 -160 0
0 160 0 160 -1120 0 -1120 0 0 -160z m1600 -1120 l0 -320 -320 0 -320 0 0 320
0 320 320 0 320 0 0 -320z"/>
<path d="M6400 6560 l0 -160 -160 0 -160 0 0 -640 0 -640 160 0 160 0 0 -320
0 -320 160 0 160 0 0 -160 0 -160 160 0 160 0 0 -160 0 -160 320 0 320 0 0
160 0 160 -320 0 -320 0 0 160 0 160 640 0 640 0 0 160 0 160 320 0 320 0 0
160 0 160 160 0 160 0 0 480 0 480 -160 0 -160 0 0 160 0 160 -320 0 -320 0 0
160 0 160 -960 0 -960 0 0 -160z m1280 -1120 l0 -320 -320 0 -320 0 0 320 0
320 320 0 320 0 0 -320z"/>
<path d="M4800 4800 l0 -320 -160 0 -160 0 0 -480 0 -480 640 0 640 0 0 480 0
480 -160 0 -160 0 0 320 0 320 -320 0 -320 0 0 -320z"/>
<path d="M1920 3520 l0 -320 -320 0 -320 0 0 -160 0 -160 320 0 320 0 0 -160
0 -160 160 0 160 0 0 -160 0 -160 160 0 160 0 0 -160 0 -160 320 0 320 0 0
-160 0 -160 320 0 320 0 0 -160 0 -160 1440 0 1440 0 0 160 0 160 320 0 320 0
0 160 0 160 160 0 160 0 0 160 0 160 160 0 160 0 0 160 0 160 160 0 160 0 0
160 0 160 320 0 320 0 0 160 0 160 -160 0 -160 0 0 160 0 160 -160 0 -160 0 0
160 0 160 -160 0 -160 0 0 -320 0 -320 -320 0 -320 0 0 -160 0 -160 -2080 0
-2080 0 0 160 0 160 -320 0 -320 0 0 160 0 160 -160 0 -160 0 0 160 0 160
-160 0 -160 0 0 -320z m640 -640 l0 -320 -160 0 -160 0 0 320 0 320 160 0 160
0 0 -320z m640 -160 l0 -160 320 0 320 0 0 -320 0 -320 -320 0 -320 0 0 160 0
160 -160 0 -160 0 0 320 0 320 160 0 160 0 0 -160z m4480 -160 l0 -320 -160 0
-160 0 0 320 0 320 160 0 160 0 0 -320z m-2880 -480 l0 -480 -320 0 -320 0 0
480 0 480 320 0 320 0 0 -480z m1280 0 l0 -480 -480 0 -480 0 0 480 0 480 480
0 480 0 0 -480z m960 160 l0 -320 -160 0 -160 0 0 -160 0 -160 -160 0 -160 0
0 480 0 480 320 0 320 0 0 -320z"/>
</g>
</svg>
