
<svg xmlns="http://www.w3.org/2000/svg" width="65.102997" height="84.186996" viewBox="0 0 17.225168 22.274477">
  <g fill="#00CD3C">
    <path id="path4291" d="m 17.22512,2.98256 c 0,1.64728 -1.335243,2.98253 -2.977426,2.98253 -1.647322,0 -2.982555,-1.33525 -2.982555,-2.98253 C 11.265139,1.33521 12.600372,0 14.247694,0 15.889877,0 17.22512,1.33521 17.22512,2.98256"></path>
    <path id="path4299" d="m 7.929596,6.57389 c 4.496844,0 7.924476,3.36624 7.924476,7.86819 0,4.49686 -3.427632,7.83241 -7.924476,7.83241 C 3.427631,22.27449 0,18.93894 0,14.44208 0,9.94013 3.427631,6.57389 7.929596,6.57389 m 0,11.65906 c 2.020769,0 3.489021,-1.59107 3.489021,-3.79087 0,-2.20496 -1.468252,-3.79595 -3.489021,-3.79595 -2.020771,0 -3.494141,1.59099 -3.494141,3.79595 0,2.1998 1.47337,3.79087 3.494141,3.79087"></path>
  </g>
</svg>